<svg width="13" height="15" viewBox="0 0 13 15" fill="none" xmlns="http://www.w3.org/2000/svg">
<path d="M12.35 0.652136H7.8C7.8 0.479178 7.73152 0.313305 7.60962 0.191006C7.48772 0.068707 7.32239 0 7.15 0H5.85C5.67761 0 5.51228 0.068707 5.39038 0.191006C5.26848 0.313305 5.2 0.479178 5.2 0.652136H0.65C0.477609 0.652136 0.312279 0.720842 0.190381 0.843142C0.0684819 0.965441 0 1.13131 0 1.30427C0 1.47723 0.0684819 1.6431 0.190381 1.7654C0.312279 1.8877 0.477609 1.95641 0.65 1.95641H12.35C12.5224 1.95641 12.6877 1.8877 12.8096 1.7654C12.9315 1.6431 13 1.47723 13 1.30427C13 1.13131 12.9315 0.965441 12.8096 0.843142C12.6877 0.720842 12.5224 0.652136 12.35 0.652136Z" fill="#F75566"/>
<path d="M11.3766 2.60864H1.62656C1.45417 2.60864 1.28884 2.67735 1.16694 2.79965C1.04504 2.92195 0.976563 3.08782 0.976562 3.26078V14.3471C0.976563 14.52 1.04504 14.6859 1.16694 14.8082C1.28884 14.9305 1.45417 14.9992 1.62656 14.9992H11.3766C11.549 14.9992 11.7143 14.9305 11.8362 14.8082C11.9581 14.6859 12.0266 14.52 12.0266 14.3471V3.26078C12.0266 3.08782 11.9581 2.92195 11.8362 2.79965C11.7143 2.67735 11.549 2.60864 11.3766 2.60864ZM5.52656 11.7385C5.52656 11.9115 5.45808 12.0774 5.33618 12.1997C5.21428 12.322 5.04895 12.3907 4.87656 12.3907C4.70417 12.3907 4.53884 12.322 4.41694 12.1997C4.29504 12.0774 4.22656 11.9115 4.22656 11.7385V5.86932C4.22656 5.69636 4.29504 5.53049 4.41694 5.40819C4.53884 5.28589 4.70417 5.21719 4.87656 5.21719C5.04895 5.21719 5.21428 5.28589 5.33618 5.40819C5.45808 5.53049 5.52656 5.69636 5.52656 5.86932V11.7385ZM8.77656 11.7385C8.77656 11.9115 8.70808 12.0774 8.58618 12.1997C8.46428 12.322 8.29895 12.3907 8.12656 12.3907C7.95417 12.3907 7.78884 12.322 7.66694 12.1997C7.54504 12.0774 7.47656 11.9115 7.47656 11.7385V5.86932C7.47656 5.69636 7.54504 5.53049 7.66694 5.40819C7.78884 5.28589 7.95417 5.21719 8.12656 5.21719C8.29895 5.21719 8.46428 5.28589 8.58618 5.40819C8.70808 5.53049 8.77656 5.69636 8.77656 5.86932V11.7385Z" fill="#F75566"/>
</svg>
